HIERARCHY
ROOT Hips
{
	OFFSET 0.00000 0.00000 0.00000
	CHANNELS 6 Xposition Yposition Zposition Yrotation Zrotation Xrotation 
	JOINT Lumbar
	{
		OFFSET 0 0 0
		CHANNELS 3 Zrotation Xrotation Yrotation
		JOINT Neck
		{
			OFFSET 0.00 0.2701 0.00
			CHANNELS 3 Zrotation Xrotation Yrotation
			End Site
			{
				OFFSET 0.00 0.1379 0.00
			}
		}
		JOINT RightShoulder
		{
			OFFSET 0.0119 0.2289 0.1181
			CHANNELS 3 Zrotation Xrotation Yrotation
			JOINT RightElbow
			{
				OFFSET 0.00 -0.1475 0.00
				CHANNELS 2 Zrotation Yrotation
				JOINT RightWrist
				{
					OFFSET 0.00 -0.1605 0.00
					CHANNELS 2 Zrotation Xrotation
					End Site
					{
						OFFSET 0.0040 -0.1068 0.0006
					}
				}
			}
		}
		JOINT LeftShoulder
		{
			OFFSET 0.0119 0.2289 -0.1181
			CHANNELS 3 Zrotation Xrotation Yrotation
			JOINT LeftElbow
			{
				OFFSET 0.00 -0.1475 0.00
				CHANNELS 2 Zrotation Yrotation
				JOINT LeftWrist
				{
					OFFSET 0.00 -0.1605 0.00
					CHANNELS 2 Zrotation Xrotation
					End Site
					{
						OFFSET 0.0040 -0.1068 -0.0006
					}
				}
			}
		}
	}
	JOINT RightHip
	{
		OFFSET 0.0316 -0.0424 0.0458
		CHANNELS 3 Zrotation Xrotation Yrotation
		JOINT RightKnee
		{
			OFFSET 0.00 -0.2438 0.00
			CHANNELS 1 Zrotation
			JOINT RightAnkle
			{
				OFFSET 0.00 -0.2449 0.00
				CHANNELS 3 Zrotation Xrotation Yrotation
				End Site
				{
					OFFSET 0.1237 -0.0542 0.0051
				}
			}
		}
	}
	JOINT LeftHip
	{
		OFFSET 0.0316 -0.0424 -0.0458
		CHANNELS 3 Zrotation Xrotation Yrotation
		JOINT LeftKnee
		{
			OFFSET 0.00 -0.2438 0.00
			CHANNELS 1 Zrotation
			JOINT LeftAnkle
			{
				OFFSET 0.00 -0.2449 0.00
				CHANNELS 3 Zrotation Xrotation Yrotation
				End Site
				{
					OFFSET 0.1237 -0.0542 -0.0051
				}
			}
		}
	}
}
MOTION
Frames: 14
Frame Time: 0.02
0 0.57926 -0 184.65967 0 -2.52393 5.5579 5.08799 -3.53858 -0.10491 0.30502 -2.14133 -3.23596 -11.2981 -9.77272 7.2087 76.713 -1.84799 -0.80087 -0.34076 9.81822 18.75 5.94797 -77.34073 -4.09448 0.64689 -7.87316 6.8775 4.54561 -2.13541 3.03973 -4.18496 -8.83178 -4.8915 1.94354 -12.53128 -5.26665 7.61965 4.04567 5.07968
2e-05 0.57927 0.00032 184.62125 0 -2.55939 5.5578 5.12754 -3.49 -0.25691 0.387 -2.19082 -3.35536 -11.37811 -10.16576 7.12683 76.89002 -1.86346 -0.77084 -0.67267 9.70267 21.01504 5.91562 -77.14628 -4.20474 0.46537 -7.85418 6.87566 4.46727 -2.16641 3.04343 -4.18512 -8.71253 -4.93153 1.9621 -12.47966 -5.19744 7.61214 4.03483 5.02081
4e-05 0.57927 0.00065 184.58267 0 -2.59484 5.55816 5.16696 -3.44175 -0.41081 0.46904 -2.24006 -3.47085 -11.4581 -10.5589 7.045 77.06601 -1.87856 -0.74025 -0.99913 9.58684 23.27423 5.88352 -76.95151 -4.31458 0.28448 -7.835 6.87406 4.39187 -2.19774 3.04697 -4.18574 -8.59622 -4.97145 1.98045 -12.43392 -5.12861 7.60414 4.02597 4.96831
5e-05 0.57928 0.00097 184.54379 0 -2.63026 5.55989 5.20593 -3.39426 -0.57047 0.55255 -2.28861 -3.57756 -11.53889 -10.95475 6.96291 77.23936 -1.89256 -0.7087 -1.31424 9.46841 25.50332 5.85214 -76.75371 -4.42212 0.10563 -7.81521 6.87299 4.32772 -2.23028 3.05014 -4.18771 -8.49157 -5.01108 1.99684 -12.42694 -5.06152 7.59264 4.02793 4.95643
7e-05 0.57928 0.0013 184.50736 0 -2.66545 5.55383 5.2469 -3.34264 -0.69557 0.62877 -2.34057 -3.73766 -11.61557 -11.33451 6.88264 77.42643 -1.91263 -0.68408 -1.69822 9.36329 27.85773 5.817 -76.57221 -4.53976 -0.08249 -7.79909 6.86862 4.20435 -2.25593 3.05553 -4.18201 -8.32648 -5.05199 2.02206 -12.23347 -4.98626 7.59788 3.97619 4.74814
9e-05 0.57929 0.00161 184.4652 0 -2.70137 5.56461 5.28385 -3.29987 -0.89639 0.71998 -2.38546 -3.78002 -11.70076 -11.74906 6.7983 77.58445 -1.91967 -0.64356 -1.93021 9.23045 29.9678 5.78981 -76.35625 -4.63735 -0.25184 -7.77493 6.87155 4.20608 -2.29647 3.05602 -4.1929 -8.28849 -5.09033 2.02962 -12.42188 -4.92767 7.56895 4.03562 4.94273
0.0001 0.57928 0.00186 184.4101 0 -2.73776 5.62083 5.30829 -3.28076 -1.2968 0.8594 -2.40982 -3.52487 -11.81346 -12.26347 6.70258 77.66255 -1.89131 -0.56788 -1.78241 9.01241 31.23105 5.78479 -76.03545 -4.66819 -0.36364 -7.7296 6.89271 4.56684 -2.37796 3.04439 -4.24773 -8.61944 -5.12082 1.97788 -13.81971 -4.92115 7.43057 4.43626 6.40733
0.0001 0.57927 0.00207 184.34855 0 -2.77516 5.6943 5.32893 -3.27076 -1.77592 1.01266 -2.42728 -3.14509 -11.93398 -12.81151 6.60279 77.71151 -1.84974 -0.47495 -1.4731 8.76824 32.27239 5.78777 -75.68043 -4.68086 -0.45763 -7.67589 6.92154 5.05068 -2.47458 3.02768 -4.31925 -9.07465 -5.14881 1.91003 -15.57822 -4.93052 7.26009 4.94347 8.25353
0.00011 0.57927 0.0023 184.28809 0 -2.81322 5.76071 5.3523 -3.25699 -2.22563 1.15554 -2.44858 -2.80453 -12.04867 -13.34414 6.5047 77.77352 -1.81374 -0.38352 -1.21216 8.5407 33.53945 5.78694 -75.34803 -4.70934 -0.5637 -7.62528 6.9482 5.47125 -2.56455 3.01221 -4.38506 -9.46325 -5.17857 1.85652 -17.07013 -4.92847 7.11417 5.37994 9.82178
0.00011 0.57926 0.00256 184.23569 0 -2.84675 5.82395 5.37157 -3.24144 -2.64815 1.31638 -2.46685 -2.53917 -12.1736 -13.88293 6.40678 77.83574 -1.77929 -0.31685 -1.0591 8.291 34.31338 5.78679 -74.9893 -4.70612 -0.65313 -7.5777 6.96954 5.9273 -2.65373 3.00072 -4.44491 -9.89931 -5.20596 1.77397 -18.98678 -4.94343 6.92702 5.90976 11.822
0.00013 0.57925 0.00273 184.16461 0 -2.88969 5.89772 5.39831 -3.23204 -3.14638 1.4422 -2.48983 -2.0855 -12.27826 -14.40975 6.3081 77.89135 -1.73882 -0.197 -0.64017 8.08389 36.01886 5.78717 -74.67295 -4.76439 -0.77274 -7.52177 7.00349 6.33297 -2.74795 2.98038 -4.51866 -10.2601 -5.23733 1.74734 -20.11513 -4.92762 6.81708 6.27143 13.02451
0.00025 0.57927 0.00269 184.04632 0 -2.9606 5.99763 5.44808 -3.23498 -3.83153 1.47544 -2.52706 -1.16001 -12.33173 -14.95627 6.20369 77.92917 -1.6821 0.08665 0.45012 7.97828 40.71644 5.78692 -74.52257 -4.99789 -0.98105 -7.44527 7.0731 6.62037 -2.8542 2.93106 -4.64864 -10.43544 -5.2832 1.88551 -18.88666 -4.81571 6.93718 6.1348 11.83319
0.0004 0.57928 0.00255 183.90885 0 -3.04049 6.10724 5.50522 -3.24411 -4.59081 1.47141 -2.56929 -0.04604 -12.36306 -15.47793 6.09968 77.96241 -1.6203 0.41912 1.80716 7.92083 46.28915 5.78702 -74.41091 -5.29295 -1.21929 -7.36054 7.15466 6.84475 -2.9647 2.87396 -4.78835 -10.52225 -5.33253 2.07929 -16.86916 -4.67377 7.13448 5.82691 9.84382
0.00054 0.5793 0.00245 183.7784 0 -3.11485 6.21163 5.55807 -3.25219 -5.31794 1.4797 -2.60957 0.99328 -12.40042 -15.97138 5.99829 78.00234 -1.56269 0.71558 3.05679 7.85584 51.22379 5.78696 -74.25176 -5.56015 -1.44425 -7.27937 7.22892 7.06269 -3.07202 2.8244 -4.90869 -10.61323 -5.37847 2.24337 -15.2737 -4.55016 7.29045 5.60242 8.28445
